<!-- assets/icon.svg -->
<!-- Simple app icon for Ubuntu Cleanup Manager -->

<svg xmlns="http://www.w3.org/2000/svg" viewBox="0 0 256 256">
  <defs>
    <linearGradient id="bg" x1="0" x2="1" y1="0" y2="1">
      <stop offset="0%" stop-color="#2563eb"/>
      <stop offset="100%" stop-color="#1d4ed8"/>
    </linearGradient>
  </defs>

  <rect x="16" y="16" width="224" height="224" rx="44" fill="url(#bg)"/>

  <rect x="48" y="56" width="160" height="112" rx="14" fill="#ffffff"/>
  <rect x="60" y="72" width="136" height="12" rx="6" fill="#dbeafe"/>
  <rect x="60" y="96" width="80" height="10" rx="5" fill="#93c5fd"/>
  <rect x="60" y="116" width="96" height="10" rx="5" fill="#93c5fd"/>
  <rect x="60" y="136" width="68" height="10" rx="5" fill="#93c5fd"/>

  <path d="M172 182c-18 0-32-14-32-32h12c0 11 9 20 20 20s20-9 20-20-9-20-20-20h-38v-12h38c18 0 32 14 32 32s-14 32-32 32z" fill="#ffffff"/>
  <path d="M112 150l-18 18-6-6-8 8 14 14 24-24-6-10z" fill="#fbbf24"/>
</svg>